<?xml version="1.0" encoding="UTF-8" standalone="no"?>
<!-- Created with Inkscape (http://www.inkscape.org/) -->

<svg
   xmlns:dc="http://purl.org/dc/elements/1.1/"
   xmlns:cc="http://creativecommons.org/ns#"
   xmlns:rdf="http://www.w3.org/1999/02/22-rdf-syntax-ns#"
   xmlns:svg="http://www.w3.org/2000/svg"
   xmlns="http://www.w3.org/2000/svg"
   xmlns:xlink="http://www.w3.org/1999/xlink"
   xmlns:sodipodi="http://sodipodi.sourceforge.net/DTD/sodipodi-0.dtd"
   xmlns:inkscape="http://www.inkscape.org/namespaces/inkscape"
   width="496.42978"
   height="412"
   id="svg2"
   version="1.1"
   inkscape:version="0.48.5 r10040"
   sodipodi:docname="image1.svg">
  <defs
     id="defs4">
    <marker
       inkscape:stockid="Arrow1Lend"
       orient="auto"
       refY="0"
       refX="0"
       id="Arrow1Lend"
       style="overflow:visible">
      <path
         id="path4383"
         d="M 0,0 5,-5 -12.5,0 5,5 0,0 z"
         style="fill-rule:evenodd;stroke:#000000;stroke-width:1pt"
         transform="matrix(-0.8,0,0,-0.8,-10,0)"
         inkscape:connector-curvature="0" />
    </marker>
  </defs>
  <sodipodi:namedview
     id="base"
     pagecolor="#ffffff"
     bordercolor="#666666"
     borderopacity="1.0"
     inkscape:pageopacity="0.0"
     inkscape:pageshadow="2"
     inkscape:zoom="2"
     inkscape:cx="361.58425"
     inkscape:cy="127.78725"
     inkscape:document-units="px"
     inkscape:current-layer="svg2"
     showgrid="false"
     inkscape:window-width="1920"
     inkscape:window-height="1096"
     inkscape:window-x="0"
     inkscape:window-y="33"
     inkscape:window-maximized="1"
     showborder="true"
     fit-margin-top="20"
     fit-margin-left="20"
     fit-margin-right="20"
     fit-margin-bottom="20"
     inkscape:showpageshadow="false" />
  <rect
     style="fill:#ffffff;fill-opacity:1;stroke:#000000;stroke-width:3.18725729;stroke-miterlimit:4;stroke-opacity:1;stroke-dasharray:none"
     id="rect3040"
     width="124.73584"
     height="49.754742"
     x="104.18958"
     y="221.37852" />
  <rect
     style="fill:#ffffff;fill-opacity:1;stroke:#000000;stroke-width:0.32940659;stroke-opacity:1"
     id="rect3040-7"
     width="87.646919"
     height="34.975323"
     x="105.05216"
     y="112.75591" />
  <rect
     style="fill:#ffffff;fill-opacity:1;stroke:#000000;stroke-width:0.32940659;stroke-opacity:1"
     id="rect3040-7-8"
     width="87.646919"
     height="34.975323"
     x="388.62085"
     y="108.14561" />
  <rect
     style="fill:#ffffff;fill-opacity:1;stroke:#000000;stroke-width:2.10812044;stroke-miterlimit:4;stroke-opacity:1;stroke-dasharray:none"
     id="rect3040-4"
     width="81.136986"
     height="33.462898"
     x="338.87582"
     y="223.44214" />
  <rect
     style="fill:#ffffff;fill-opacity:1;stroke:#000000;stroke-width:0.24982344;stroke-opacity:1"
     id="rect3040-7-8-3"
     width="87.646919"
     height="20.117014"
     x="254.62088"
     y="118.14561" />
  <rect
     style="fill:#ffffff;fill-opacity:1;stroke:#000000;stroke-width:0.44033217;stroke-opacity:1"
     id="rect3040-7-82"
     width="111.70885"
     height="49.035099"
     x="152.48972"
     y="20.214813" />
  <metadata
     id="metadata4134">
    <rdf:RDF>
      <cc:Work
         rdf:about="">
        <dc:title></dc:title>
      </cc:Work>
    </rdf:RDF>
  </metadata>
  <text
     xml:space="preserve"
     style="font-size:12px;font-style:normal;font-variant:normal;font-weight:normal;font-stretch:normal;text-align:center;line-height:125%;letter-spacing:0px;word-spacing:0px;writing-mode:lr-tb;text-anchor:middle;fill:#000000;fill-opacity:1;stroke:none;font-family:Times New Roman;-inkscape-font-specification:'Times New Roman,'"
     x="240.31836"
     y="209.60117"
     id="text4236"
     sodipodi:linespacing="125%"><tspan
       sodipodi:role="line"
       id="tspan4238"
       x="240.31836"
       y="209.60117">Временное запаздывание</tspan></text>
  <text
     xml:space="preserve"
     style="font-size:12px;font-style:normal;font-variant:normal;font-weight:normal;font-stretch:normal;text-align:center;line-height:125%;letter-spacing:0px;word-spacing:0px;writing-mode:lr-tb;text-anchor:middle;fill:#000000;fill-opacity:1;stroke:none;font-family:Times New Roman;-inkscape-font-specification:'Times New Roman,'"
     x="80.345703"
     y="210.93906"
     id="text4240"
     sodipodi:linespacing="125%"><tspan
       sodipodi:role="line"
       id="tspan4242"
       x="80.345703"
       y="210.93906">Коэффициенты ошибок</tspan></text>
  <a
     id="a5027"
     xlink:href="http://comstol.info/forum/index.php/topic,891.msg10187.html#msg10187"
     xlink:title="Гиперссылкин текст">
    <g
       id="g5014">
      <rect
         style="fill:#ffffff;fill-opacity:1;stroke:#000000;stroke-width:4.02489424;stroke-miterlimit:4;stroke-opacity:1;stroke-dasharray:none"
         id="rect3040-4-8"
         width="151.86607"
         height="65.1688"
         x="246.8053"
         y="324.83127" />
      <a
         id="a5005">
        <text
           sodipodi:linespacing="125%"
           id="text4310"
           y="340.45117"
           x="332.65427"
           style="font-size:12px;font-style:normal;font-variant:normal;font-weight:normal;font-stretch:normal;text-align:center;line-height:125%;letter-spacing:0px;word-spacing:0px;writing-mode:lr-tb;text-anchor:middle;fill:#000000;fill-opacity:1;stroke:none;font-family:Times New Roman;-inkscape-font-specification:'Times New Roman,'"
           xml:space="preserve"><tspan
             id="tspan4312"
             y="340.45117"
             x="334.15427"
             sodipodi:role="line"><tspan
               id="tspan4314"
               y="340.45117"
               x="332.65427">интеллектуальная </tspan></tspan><tspan
             id="tspan4316"
             y="355.45117"
             x="333.25192"
             sodipodi:role="line"><tspan
               id="tspan4318"
               x="331.75192">самообучающаяся </tspan></tspan><tspan
             id="tspan4320"
             y="370.45117"
             x="318.97849"
             sodipodi:role="line"><tspan
               id="tspan4322"
               x="318.97849">корректирующая схема</tspan></tspan></text>
      </a>
    </g>
  </a>
  <text
     xml:space="preserve"
     style="font-size:12px;font-style:normal;font-variant:normal;font-weight:normal;font-stretch:normal;text-align:center;line-height:125%;letter-spacing:0px;word-spacing:0px;writing-mode:lr-tb;text-anchor:middle;fill:#000000;fill-opacity:1;stroke:none;font-family:Times New Roman;-inkscape-font-specification:'Times New Roman,'"
     x="173.42383"
     y="242.01366"
     id="text4300"
     sodipodi:linespacing="125%"><tspan
       sodipodi:role="line"
       x="174.92383"
       y="242.01366"
       id="tspan4302"><tspan
         x="173.42383"
         y="242.01366"
         id="tspan4304">Математическая </tspan></tspan><tspan
       sodipodi:role="line"
       x="163.19336"
       y="257.01367"
       id="tspan4306"><tspan
         x="163.19336"
         id="tspan4308">модель предприятия</tspan></tspan></text>
  <text
     xml:space="preserve"
     style="font-size:12px;font-style:normal;font-variant:normal;font-weight:normal;font-stretch:normal;text-align:center;line-height:125%;letter-spacing:0px;word-spacing:0px;writing-mode:lr-tb;text-anchor:middle;fill:#000000;fill-opacity:1;stroke:none;font-family:Times New Roman;-inkscape-font-specification:'Times New Roman,'"
     x="142.20117"
     y="124.38866"
     id="text4364"
     sodipodi:linespacing="125%"><tspan
       sodipodi:role="line"
       x="143.70117"
       y="124.38866"
       id="tspan4366"><tspan
         x="142.20117"
         y="124.38866"
         id="tspan4368">Управляющая </tspan></tspan><tspan
       sodipodi:role="line"
       x="157.62302"
       y="139.38866"
       id="tspan4370"><tspan
         x="157.62302"
         id="tspan4372">система</tspan></tspan></text>
  <text
     xml:space="preserve"
     style="font-size:12px;font-style:normal;font-variant:normal;font-weight:normal;font-stretch:normal;text-align:center;line-height:125%;letter-spacing:0px;word-spacing:0px;writing-mode:lr-tb;text-anchor:middle;fill:#000000;fill-opacity:1;stroke:none;font-family:Times New Roman;-inkscape-font-specification:'Times New Roman,'"
     x="293.78317"
     y="129.76366"
     id="text4344"
     sodipodi:linespacing="125%"><tspan
       sodipodi:role="line"
       x="293.78317"
       y="129.76366"
       id="tspan4346"><tspan
         x="293.78317"
         y="129.76366"
         id="tspan4348">Предприятие</tspan></tspan></text>
  <text
     xml:space="preserve"
     style="font-size:12px;font-style:normal;font-variant:normal;font-weight:normal;font-stretch:normal;text-align:center;line-height:125%;letter-spacing:0px;word-spacing:0px;writing-mode:lr-tb;text-anchor:middle;fill:#000000;fill-opacity:1;stroke:none;font-family:Times New Roman;-inkscape-font-specification:'Times New Roman,'"
     x="224.85742"
     y="31.826172"
     id="text4350"
     sodipodi:linespacing="125%"><tspan
       sodipodi:role="line"
       x="226.35742"
       y="31.826172"
       id="tspan4352"><tspan
         x="224.85742"
         y="31.826172"
         id="tspan4354">Задания, </tspan></tspan><tspan
       sodipodi:role="line"
       x="206.35352"
       y="46.826172"
       id="tspan4356"><tspan
         x="204.85352"
         id="tspan4358">общественные и </tspan></tspan><tspan
       sodipodi:role="line"
       x="222.32617"
       y="61.826172"
       id="tspan4360"><tspan
         x="222.32617"
         id="tspan4362">плановые</tspan></tspan></text>
  <text
     xml:space="preserve"
     style="font-size:12px;font-style:normal;font-variant:normal;font-weight:normal;font-stretch:normal;text-align:center;line-height:125%;letter-spacing:0px;word-spacing:0px;writing-mode:lr-tb;text-anchor:middle;fill:#000000;fill-opacity:1;stroke:none;font-family:Times New Roman;-inkscape-font-specification:'Times New Roman,'"
     x="435.59958"
     y="121.76367"
     id="text4334"
     sodipodi:linespacing="125%"><tspan
       sodipodi:role="line"
       x="437.09958"
       y="121.76367"
       id="tspan4336"><tspan
         x="435.59958"
         y="121.76367"
         id="tspan4338">Выпуск </tspan></tspan><tspan
       sodipodi:role="line"
       x="427.77145"
       y="136.76367"
       id="tspan4340"><tspan
         x="427.77145"
         id="tspan4342">продукции</tspan></tspan></text>
  <text
     xml:space="preserve"
     style="font-size:12px;font-style:normal;font-variant:normal;font-weight:normal;font-stretch:normal;text-align:center;line-height:125%;letter-spacing:0px;word-spacing:0px;writing-mode:lr-tb;text-anchor:middle;fill:#000000;fill-opacity:1;stroke:none;font-family:Times New Roman;-inkscape-font-specification:'Times New Roman,'"
     x="375.47067"
     y="235.07616"
     id="text4324"
     sodipodi:linespacing="125%"><tspan
       sodipodi:role="line"
       x="376.97067"
       y="235.07616"
       id="tspan4326"><tspan
         x="375.47067"
         y="235.07616"
         id="tspan4328">расчетный </tspan></tspan><tspan
       sodipodi:role="line"
       x="387.65817"
       y="250.07616"
       id="tspan4330"><tspan
         x="387.65817"
         id="tspan4332">центр</tspan></tspan></text>
  <path
     style="fill:none;stroke:#000000;stroke-width:1px;stroke-linecap:butt;stroke-linejoin:miter;stroke-opacity:1;marker-end:url(#Arrow1Lend)"
     d="m 242,358.0125 c -4,0 -8,0 -12,0 -0.33333,0 -0.66667,0 -1,0 -0.33333,0 -0.7643,0.23571 -1,0 -0.2357,-0.2357 0.2357,-0.76429 0,-1 -0.4714,-0.4714 -1.5286,0.47141 -2,0 -0.2357,-0.2357 0.2357,-0.76429 0,-1 -0.2357,-0.2357 -0.66667,0 -1,0 -0.4715,0 -4.95468,0.0453 -5,0 -0.2357,-0.2357 0.2357,-0.76429 0,-1 -0.24063,-0.24063 -3.75937,0.24063 -4,0 -0.2357,-0.2357 0.2357,-0.76429 0,-1 -0.5,-0.5 -2.5,0.5 -3,0 -0.2357,-0.2357 0.29814,-0.85093 0,-1 -0.8,-0.4 -2.2,0.4 -3,0 -4.57661,-2.2883 4.24342,0.41447 -3,-2 -0.63246,-0.21082 -1.40372,0.29815 -2,0 -4.57661,-2.2883 4.24342,0.41447 -3,-2 -0.63246,-0.21082 -1.40372,0.29815 -2,0 -0.42164,-0.21082 -0.57836,-0.78918 -1,-1 -0.29814,-0.14907 -0.7643,0.23571 -1,0 -0.2357,-0.2357 0.2357,-0.76429 0,-1 -2.06904,-2.06903 0.0809,3.16176 -2,-1 -0.14907,-0.29814 0.2357,-0.76429 0,-1 -0.2357,-0.2357 -0.7643,0.23571 -1,0 -0.4714,-0.4714 0.4714,-1.52859 0,-2 -0.2357,-0.2357 -0.7643,0.23571 -1,0 -0.2357,-0.2357 0,-0.66666 0,-1 0,-0.66666 0.29814,-1.40371 0,-2 -0.14907,-0.29814 -0.7643,0.23571 -1,0 -0.2357,-0.2357 0,-0.66666 0,-1 0,-0.33333 0,-0.66666 0,-1 0,-2.34518 0.2357,0.47141 -1,-2 -0.14907,-0.29814 0,-0.66666 0,-1 0,-0.33333 0,-0.66666 0,-1 0,-2 0,-4 0,-6 0,-0.33333 0,-0.66666 0,-1 0,-0.33333 -0.2357,-0.76429 0,-1 0.2357,-0.2357 0.7643,-0.2357 1,0 0.4714,0.47141 -0.4714,1.5286 0,2 0.2357,0.23571 0.7643,-0.2357 1,0 0.4714,0.47141 -0.4714,1.5286 0,2 0.2357,0.23571 0.7643,-0.2357 1,0 0.2357,0.23571 0,0.66667 0,1 0,0.33334 0,0.66667 0,1 0,0.33334 0,0.66667 0,1 0,0.33334 -0.2357,0.7643 0,1 2.06904,2.06904 -0.0809,-3.16176 2,1 0.15934,0.31868 0,4.10628 0,5 0,0.96723 0.14829,5.70342 0,6 -0.21082,0.42164 -0.78918,0.57837 -1,1 -0.14907,0.29815 0.14907,0.70186 0,1 -0.21082,0.42164 -0.78918,0.57837 -1,1 -0.14907,0.29815 0.14907,0.70186 0,1 -0.21082,0.42164 -0.66667,0.66667 -1,1 -0.78577,0.78577 -4.68151,4.36303 -5,5 -0.14907,0.29815 0.2357,0.7643 0,1 -0.4714,0.47141 -1.40372,-0.29814 -2,0 -0.84327,0.42164 -1.10557,1.70186 -2,2 -0.63246,0.21082 -1.33333,0 -2,0 -0.66667,0 -1.33333,0 -2,0 -3.33333,0 -6.66667,0 -10,0 -0.66667,0 -1.33333,0 -2,0 -0.33333,0 -0.7643,0.23571 -1,0 -3.59828,-3.59828 -0.19023,-2.47609 -4,-4 -0.9787,-0.39148 -2.05719,-0.52859 -3,-1 -2.52298,-1.26149 -3.13976,-2.13975 -5,-4 -0.33333,-0.33333 -0.85093,-0.55278 -1,-1 -0.21082,-0.63245 0.21082,-1.36754 0,-2 -0.14907,-0.44721 -0.78918,-0.57836 -1,-1 -0.14907,-0.29814 0,-0.66666 0,-1 0,-0.33333 0,-0.66666 0,-1 0,-2 0,-4 0,-6 0,-2 0,-4 0,-6 0,-0.33333 -0.2357,-0.76429 0,-1 0.2357,-0.2357 0.7643,-0.2357 1,0 0.2357,0.23571 0,0.66667 0,1 0,3.21895 -0.2357,-1.7071 1,2 0.21082,0.63246 -0.16169,1.35324 0,2 0.18078,0.7231 0.7643,1.2929 1,2 0.10541,0.31623 0,0.66667 0,1 0,0.66667 0,1.33334 0,2 0,1.07284 0.22033,6.339 0,7 -1.20843,3.62529 -0.47446,0.7117 -2,3 -0.41345,0.62018 -0.66667,1.33334 -1,2 -0.33333,0.66667 -0.7643,1.2929 -1,2 -0.10541,0.31623 0.2357,0.7643 0,1 -0.52705,0.52705 -1.37983,0.58655 -2,1 -0.78446,0.52298 -1.10557,1.70186 -2,2 -0.63246,0.21082 -1.36754,-0.21082 -2,0 -0.44721,0.14907 -0.55279,0.85093 -1,1 -0.63246,0.21082 -1.33333,0 -2,0 -2,0 -4,0 -6,0 -0.64351,0 -6.32326,0.16919 -7,0 -1.4462,-0.36155 -2.58579,-1.52859 -4,-2 -0.31623,-0.10541 -0.70186,0.14907 -1,0 -0.42164,-0.21082 -0.66667,-0.66666 -1,-1 -0.33333,-0.33333 -0.78918,-0.57836 -1,-1 -0.14907,-0.29814 0,-0.66666 0,-1 0,-2 0,-4 0,-6 0,-0.33333 -0.2357,-0.76429 0,-1 0.2357,-0.2357 0.66667,0 1,0 0.36724,0 3.95976,-0.0402 4,0 0.2357,0.23571 -0.10541,0.68378 0,1 0.4714,1.41422 1.63845,2.5538 2,4 0.16169,0.64676 0,1.33334 0,2 0,1.66667 0,3.33334 0,5 0,0.24253 0.0322,2.96784 0,3 -0.2357,0.23571 -0.66667,0 -1,0 -0.66667,0 -1.33333,0 -2,0 -4.66667,0 -9.33333,0 -14,0 -1,0 -2,0 -3,0 -1,0 -2.01361,0.1644 -3,0 -5.50974,-0.91829 -0.68747,-0.96427 -6,-4 -1.19329,-0.68187 -2.696161,-0.56538 -4.000001,-1 -3.153992,-1.05133 -8.280201,-3.41345 -11,-5 -2.076266,-1.21115 -4,-2.66666 -6,-4 -2,-1.33333 -4.077039,-2.55778 -6,-4 -2.082733,-1.56205 -3.917267,-3.43795 -6,-5 -1.922961,-1.44222 -4.49842,-2.12302 -6,-4 -1.316973,-1.64621 -1.279542,-4.01874 -2,-6 -0.613448,-1.68698 -1.678891,-3.2339 -2,-5 -2.293514,-12.61433 2.341345,0.13782 -1,-11 -2.010252,-6.70084 -2.235955,-3.12359 -3,-10 -0.242668,-2.18401 0,-6.5422 0,-9 0,-0.57619 -0.182238,-4.63552 0,-5 0.210819,-0.42163 0.666667,-0.66666 1,-1 0.666667,-0.66666 1.434315,-1.24575 2,-2 0.447214,-0.59628 0.552786,-1.40371 1,-2 0.565685,-0.75424 1.333333,-1.33333 2,-2 0.333333,-0.33333 0.607768,-0.73851 1,-1 1.240347,-0.8269 2.759653,-1.1731 4,-2 0.392232,-0.26149 0.54267,-0.88566 1,-1 0.787085,-0.19677 6.97661,0 8,0 1.807258,0 5.428626,-0.22448 7,0 0.897124,0.12816 5.860271,1.43014 7,2 1.074968,0.53749 1.925032,1.46252 3,2 0.942809,0.47141 2,0.66667 3,1 1,0.66667 1.969422,1.38166 3,2 2.549021,1.52941 5.450981,2.47059 8.000001,4 1.03058,0.61835 2.06151,1.24921 3,2 0.73621,0.58897 1.19155,1.51493 2,2 0.90388,0.54233 2.15673,0.36755 3,1 0.59628,0.44722 0.40372,1.55279 1,2 0.84327,0.63246 2.12294,0.4153 3,1 0.27735,0.1849 -0.2357,0.7643 0,1 0.52705,0.52705 1.37983,0.58655 2,1 0.39223,0.26149 0.60777,0.73851 1,1 0.62017,0.41345 1.37983,0.58655 2,1 0.39223,0.26149 0.60777,0.73851 1,1 0.50359,2.20317 2.05719,0.5286 3,1 0.84327,0.42164 1.21554,1.47703 2,2 0.62017,0.41345 1.37983,0.58655 2,1 0.78446,0.52298 1.21554,1.47703 2,2 0.50359,2.20317 2.05719,0.5286 3,1 0.84327,0.42164 1.15673,1.57837 2,2 0.29814,0.14907 0.70186,-0.14907 1,0 0.84327,0.42164 1.15673,1.57837 2,2 0.29814,0.14907 0.66667,0 1,0 0.66667,0 1.36754,-0.21082 2,0 0.44721,0.14907 0.55279,0.85093 1,1 0.63246,0.21082 1.36754,-0.21082 2,0 0.44721,0.14907 0.66667,0.66667 1,1 0.66667,0.33334 1.2769,0.81923 2,1 1.73625,0.43406 4.26375,-0.43406 6,0 0.7231,0.18078 1.2769,0.81923 2,1 0.64676,0.16169 1.33333,0 2,0 1.66667,0 3.33333,0 5,0 1.66667,0 3.33333,0 5,0 0.66667,0 1.36754,0.21082 2,0 0.70711,-0.2357 1.2769,-0.81922 2,-1 0.64676,-0.16169 1.36754,0.21082 2,0 1.14868,-0.38289 1.38743,-2.38742 2,-3 0.2357,-0.2357 0.67662,0.0808 1,0 1.02262,-0.25565 2.12294,-0.41529 3,-1 0.27735,-0.1849 -0.2357,-0.76429 0,-1 1.21798,-1.21798 2.23421,-0.46842 3,-2 0.14907,-0.29814 -0.14907,-0.70185 0,-1 0.21082,-0.42163 0.85093,-0.55278 1,-1 0.21082,-0.63245 0,-1.33333 0,-2 0,-0.66666 0,-1.33333 0,-2 0,-2 0,-4 0,-6 0,-4.66666 0,-9.33333 0,-14 0,-0.33333 0,-0.66666 0,-1 0,-0.33333 0.2357,-0.76429 0,-1 -0.2357,-0.2357 -0.7643,0.23571 -1,0 -0.2357,-0.2357 0.2357,-0.76429 0,-1 -0.2357,-0.2357 -0.7643,0.23571 -1,0 -2.06904,-2.06903 3.16176,0.0809 -1,-2 -0.29814,-0.14907 -0.7643,0.23571 -1,0 -0.2357,-0.2357 0.2357,-0.76429 0,-1 -0.4714,-0.4714 -1.5286,0.47141 -2,0 -0.2357,-0.2357 -0.33333,-1 0,-1 0.33333,0 0,1.33334 0,1 0,-1 0,-2 0,-3"
     id="path4374"
     inkscape:connector-curvature="0" />
</svg>
